<?xml version="1.0" encoding="UTF-8" standalone="no"?>
<!DOCTYPE svg PUBLIC "-//W3C//DTD SVG 1.1//EN" "http://www.w3.org/Graphics/SVG/1.1/DTD/svg11.dtd">
<svg width="100%" height="100%" viewBox="0 0 700 700" version="1.1" xmlns="http://www.w3.org/2000/svg" xmlns:xlink="http://www.w3.org/1999/xlink" xml:space="preserve" xmlns:serif="http://www.serif.com/" style="fill-rule:evenodd;clip-rule:evenodd;stroke-linejoin:round;stroke-miterlimit:2;">
    <rect id="Artboard1" x="0" y="0" width="700" height="700" style="fill:none;"/>
    <g id="Artboard11" serif:id="Artboard1">
        <g transform="matrix(1,0,0,1,-1693.95,-135.723)">
            <path d="M1796.95,624.852L1729.29,624.852C1725.27,624.852 1722,621.587 1722,617.56L1722,227.139C1722,223.112 1725.27,219.847 1729.29,219.847L2358.61,219.847C2362.64,219.847 2365.9,223.112 2365.9,227.139L2365.9,617.56C2365.9,621.587 2362.64,624.852 2358.61,624.852L2290.95,624.852L2308.97,743.207C2309.28,745.309 2308.67,747.446 2307.29,749.058C2305.9,750.671 2303.88,751.599 2301.76,751.599L2267.68,751.599C2264.8,751.599 2262.18,749.893 2261.01,747.249L2207.02,624.852L1880.88,624.852L1826.89,747.249C1825.72,749.893 1823.11,751.599 1820.22,751.599L1786.14,751.599C1784.02,751.599 1782,750.671 1780.62,749.058C1779.23,747.446 1778.62,745.309 1778.94,743.207L1796.95,624.852ZM2223.97,627.137L2272.44,737.011L2293.27,737.011L2276.55,627.137L2223.97,627.137ZM1811.35,627.137L1794.63,737.011L1815.46,737.011L1863.93,627.137L1811.35,627.137ZM1736.59,491.541L1736.59,609.192L2351.32,609.192L2351.32,491.541L1736.59,491.541ZM2206.38,530.066C2195.76,530.066 2187.14,538.684 2187.14,549.3C2187.14,559.915 2195.76,568.534 2206.38,568.534C2216.99,568.534 2225.61,559.915 2225.61,549.3C2225.61,538.684 2216.99,530.066 2206.38,530.066ZM1875.24,529.491C1864.62,529.491 1856,538.109 1856,548.725C1856,559.34 1864.62,567.958 1875.24,567.958C1885.85,567.958 1894.47,559.34 1894.47,548.725C1894.47,538.109 1885.85,529.491 1875.24,529.491ZM2206.38,538.399C2212.39,538.399 2217.28,543.284 2217.28,549.3C2217.28,555.316 2212.39,560.2 2206.38,560.2C2200.36,560.2 2195.48,555.316 2195.48,549.3C2195.48,543.284 2200.36,538.399 2206.38,538.399ZM1875.24,537.824C1881.25,537.824 1886.14,542.708 1886.14,548.725C1886.14,554.741 1881.25,559.625 1875.24,559.625C1869.22,559.625 1864.34,554.741 1864.34,548.725C1864.34,542.708 1869.22,537.824 1875.24,537.824ZM1736.59,364.784L1736.59,482.435L2351.32,482.435L2351.32,364.784L1736.59,364.784ZM2206.38,405.628C2195.76,405.628 2187.14,414.246 2187.14,424.862C2187.14,435.477 2195.76,444.096 2206.38,444.096C2216.99,444.096 2225.61,435.477 2225.61,424.862C2225.61,414.246 2216.99,405.628 2206.38,405.628ZM1875.24,405.053C1864.62,405.053 1856,413.671 1856,424.287C1856,434.902 1864.62,443.52 1875.24,443.52C1885.85,443.52 1894.47,434.902 1894.47,424.287C1894.47,413.671 1885.85,405.053 1875.24,405.053ZM2206.38,413.961C2212.39,413.961 2217.28,418.846 2217.28,424.862C2217.28,430.878 2212.39,435.762 2206.38,435.762C2200.36,435.762 2195.48,430.878 2195.48,424.862C2195.48,418.846 2200.36,413.961 2206.38,413.961ZM1875.24,413.386C1881.25,413.386 1886.14,418.27 1886.14,424.287C1886.14,430.303 1881.25,435.187 1875.24,435.187C1869.22,435.187 1864.34,430.303 1864.34,424.287C1864.34,418.27 1869.22,413.386 1875.24,413.386ZM2351.32,237.575L1737.79,237.575L1737.79,355.226L2351.32,355.226L2351.32,237.575ZM2206.38,281.19C2195.76,281.19 2187.14,289.808 2187.14,300.424C2187.14,311.039 2195.76,319.658 2206.38,319.658C2216.99,319.658 2225.61,311.039 2225.61,300.424C2225.61,289.808 2216.99,281.19 2206.38,281.19ZM1875.24,280.615C1864.62,280.615 1856,289.233 1856,299.849C1856,310.464 1864.62,319.082 1875.24,319.082C1885.85,319.082 1894.47,310.464 1894.47,299.849C1894.47,289.233 1885.85,280.615 1875.24,280.615ZM2206.38,289.523C2212.39,289.523 2217.28,294.408 2217.28,300.424C2217.28,306.44 2212.39,311.324 2206.38,311.324C2200.36,311.324 2195.48,306.44 2195.48,300.424C2195.48,294.408 2200.36,289.523 2206.38,289.523ZM1875.24,288.948C1881.25,288.948 1886.14,293.832 1886.14,299.849C1886.14,305.865 1881.25,310.749 1875.24,310.749C1869.22,310.749 1864.34,305.865 1864.34,299.849C1864.34,293.832 1869.22,288.948 1875.24,288.948Z" style="fill:white;"/>
        </g>
    </g>
</svg>
