<?xml version="1.0" encoding="UTF-8" standalone="no"?>
<!DOCTYPE svg PUBLIC "-//W3C//DTD SVG 1.1//EN" "http://www.w3.org/Graphics/SVG/1.1/DTD/svg11.dtd">
<svg width="100%" height="100%" viewBox="0 0 700 700" version="1.1" xmlns="http://www.w3.org/2000/svg" xmlns:xlink="http://www.w3.org/1999/xlink" xml:space="preserve" xmlns:serif="http://www.serif.com/" style="fill-rule:evenodd;clip-rule:evenodd;stroke-linejoin:round;stroke-miterlimit:2;">
    <rect id="Artboard1" x="0" y="0" width="700" height="700" style="fill:none;"/>
    <g id="Artboard11" serif:id="Artboard1">
        <g transform="matrix(1,0,0,1,-1023.09,-721.936)">
            <path d="M1047.58,898.649L1047.58,794.233C1047.58,790.206 1050.85,786.942 1054.88,786.942L1680.91,786.942C1684.94,786.942 1688.2,790.206 1688.2,794.233L1688.2,899.393L1715.78,899.393C1719.81,899.393 1723.08,902.658 1723.08,906.685L1723.08,1017.4C1723.08,1021.43 1719.81,1024.69 1715.78,1024.69L1692.55,1024.69L1692.55,1121.02L1713.4,1121.02C1717.42,1121.02 1720.69,1124.28 1720.69,1128.31L1720.69,1239.03C1720.69,1243.06 1717.42,1246.32 1713.4,1246.32L1690.74,1246.32L1690.74,1349.64C1690.74,1353.67 1687.48,1356.93 1683.45,1356.93L1057.41,1356.93C1053.39,1356.93 1050.12,1353.67 1050.12,1349.64L1050.12,1245.58L1030.39,1245.58C1026.37,1245.58 1023.1,1242.31 1023.1,1238.28L1023.1,1127.57C1023.1,1123.54 1026.37,1120.27 1030.39,1120.27L1051.93,1120.27L1051.93,1023.95L1032.78,1023.95C1028.75,1023.95 1025.49,1020.68 1025.49,1016.66L1025.49,905.94C1025.49,901.913 1028.75,898.649 1032.78,898.649L1047.58,898.649ZM1262.21,1246.21L1072.86,1246.21C1086.83,1252.59 1115.78,1263.31 1157.38,1266.26C1213.68,1270.26 1232.29,1263.17 1274.07,1267.07C1316.36,1271.01 1366.21,1291.15 1366.21,1291.15C1368.12,1291.92 1369.18,1293.98 1368.69,1295.98C1368.21,1297.99 1366.33,1299.34 1364.28,1299.16C1327.37,1295.91 1318.95,1304.28 1275.92,1313.09C1257.82,1316.8 1246.12,1315.44 1234.02,1313.37C1216.87,1310.44 1198.86,1306.04 1158.24,1314.2C1104.91,1324.91 1075.63,1325.39 1064.71,1325.02L1064.71,1342.35L1676.16,1342.35L1676.16,1326.77C1642.57,1320.79 1577.63,1333.5 1566.78,1333.96C1555.41,1334.45 1507.3,1337.88 1429.7,1324.02C1384.1,1315.88 1349.92,1321.34 1320.24,1327.26C1299.92,1331.31 1281.65,1335.56 1263.33,1336.09C1217.79,1337.4 1155.4,1328.7 1155.4,1328.7C1153.13,1328.39 1151.54,1326.28 1151.85,1324C1152.17,1321.73 1154.28,1320.13 1156.56,1320.45C1156.56,1320.45 1218.13,1329.05 1263.09,1327.76C1280.97,1327.25 1298.78,1323.04 1318.61,1319.09C1349.13,1313 1384.27,1307.44 1431.16,1315.82C1507.73,1329.49 1555.2,1326.12 1566.42,1325.64C1577.3,1325.17 1641.45,1312.94 1676.16,1318.33L1676.16,1303.01C1663.42,1299.54 1620.81,1289.62 1572.69,1296.95C1533.9,1302.85 1464.7,1317.22 1413.37,1298.31C1361.75,1279.29 1323.74,1271.94 1323.74,1271.94C1321.48,1271.51 1320,1269.32 1320.44,1267.06C1320.87,1264.8 1323.06,1263.32 1325.32,1263.76C1325.32,1263.76 1363.88,1271.19 1416.25,1290.49C1466.25,1308.91 1533.65,1294.46 1571.44,1288.71C1618.56,1281.53 1660.58,1290.36 1676.16,1294.39L1676.16,1265.04C1609.47,1258.65 1505.8,1279.32 1424.88,1273.17C1354.46,1267.83 1282.81,1251.25 1262.21,1246.21ZM1064.71,1251.56L1064.71,1273.95C1065.41,1274.29 1066.52,1274.56 1067.91,1274.93C1071.81,1275.97 1077.5,1276.94 1084.46,1277.87C1122.41,1282.92 1196.89,1286.36 1225.8,1287.55C1230.07,1287.63 1234.08,1287.79 1237.77,1288.02C1240.05,1288.16 1241.78,1290.11 1241.67,1292.39C1241.56,1294.66 1239.64,1296.43 1237.36,1296.34C1237.36,1296.34 1232.89,1296.18 1225.38,1295.87C1172.52,1294.79 1079.76,1304.31 1064.71,1305.9L1064.71,1316.68C1074.59,1317.05 1103.21,1316.75 1156.6,1306.03C1191.89,1298.94 1210.81,1300.97 1226.49,1303.6C1241.35,1306.1 1253.12,1309.26 1274.25,1304.93C1306.63,1298.3 1319.94,1292.04 1339.66,1290.48C1321.78,1284.63 1296.38,1277.52 1273.3,1275.36C1231.58,1271.47 1213,1278.57 1156.79,1274.57C1108.81,1271.16 1077.03,1257.72 1064.71,1251.56ZM1064.71,1282.69L1064.71,1297.52C1073.94,1296.55 1103.43,1293.56 1136.94,1291.09C1116.83,1289.68 1097.55,1288.02 1083.36,1286.13C1075.33,1285.06 1068.88,1283.9 1064.71,1282.69ZM1399.67,1246.21L1300.15,1246.21C1332.4,1252.94 1379.23,1261.35 1425.52,1264.86C1506.15,1270.99 1609.34,1250.57 1676.16,1256.67L1676.16,1246.32L1400.91,1246.32C1400.48,1246.32 1400.07,1246.28 1399.67,1246.21ZM1704.52,1135.6L1611.88,1135.6C1600.68,1141.04 1565.27,1157.23 1530.44,1162.53C1509.31,1165.74 1485.14,1161.85 1462.02,1158.09C1442.57,1154.93 1423.91,1151.82 1408.7,1153.8L1408.7,1181.54C1419.14,1177.19 1437.53,1172.07 1457.72,1178.23C1467.12,1181.1 1480.18,1186.1 1494.02,1188.06C1507.05,1189.91 1520.82,1189.07 1532.53,1180.43C1559.03,1160.87 1578.56,1153.35 1578.56,1153.35C1580.71,1152.52 1583.12,1153.59 1583.95,1155.74C1584.78,1157.88 1583.71,1160.3 1581.57,1161.12C1581.57,1161.12 1562.88,1168.39 1537.48,1187.14C1523.89,1197.17 1507.97,1198.46 1492.85,1196.31C1478.54,1194.28 1465.01,1189.16 1455.29,1186.2C1435.03,1180.02 1416.82,1186.72 1408.7,1190.64L1408.7,1206.76C1414.72,1205.92 1421.72,1206.37 1428.66,1207.51C1442.57,1209.8 1456.24,1214.75 1459.59,1215.04C1465.08,1215.51 1488.32,1218.8 1525.8,1205.38C1550.11,1196.68 1568.34,1202.37 1584.16,1208.69C1593.72,1212.52 1602.29,1216.66 1610.91,1217.15C1632.93,1218.42 1663.08,1209.95 1663.08,1209.95C1665.29,1209.34 1667.59,1210.63 1668.21,1212.85C1668.83,1215.06 1667.53,1217.36 1665.32,1217.98C1665.32,1217.98 1633.59,1226.81 1610.43,1225.47C1600.99,1224.93 1591.54,1220.62 1581.07,1216.43C1566.84,1210.74 1550.47,1205.41 1528.61,1213.23C1489.14,1227.35 1464.66,1223.84 1458.88,1223.34C1455.46,1223.05 1441.5,1218.07 1427.31,1215.74C1420.74,1214.65 1414.12,1214.08 1408.7,1215.13L1408.7,1231.63L1683.45,1231.63C1683.87,1231.63 1684.29,1231.67 1684.69,1231.74L1706.11,1231.74L1706.11,1214.47C1698.5,1214.3 1684.28,1212.36 1661.92,1203.37C1642.8,1195.67 1634.32,1199.83 1626.24,1202.59C1619.58,1204.87 1613.13,1206.34 1603.16,1202.25C1594.31,1198.62 1588.3,1195.09 1583.06,1192.36C1576.15,1188.77 1570.78,1186.74 1560.76,1188.5C1558.89,1188.83 1557.04,1187.85 1556.25,1186.12C1555.46,1184.4 1555.94,1182.35 1557.42,1181.16C1557.42,1181.16 1583.01,1160.56 1604.68,1156.51C1615.55,1154.48 1623.41,1155.27 1632.22,1156.09C1640.39,1156.86 1649.45,1157.62 1663.06,1155.68C1683.9,1152.71 1698.15,1141.62 1704.52,1135.6ZM1037.68,1134.86L1037.68,1152.11C1046.12,1152.1 1063.17,1153.72 1091,1163.15C1114.21,1171.01 1124.52,1166.76 1134.32,1163.94C1141.95,1161.74 1149.33,1160.31 1160.76,1164.26C1171.23,1167.88 1178.34,1171.4 1184.53,1174.11C1192.99,1177.82 1199.58,1179.9 1211.86,1178.08C1213.78,1177.79 1215.64,1178.87 1216.35,1180.68C1217.06,1182.49 1216.42,1184.55 1214.82,1185.64C1214.82,1185.64 1184.72,1206.09 1159.21,1210.11C1134.41,1214.01 1123.37,1206.92 1089.96,1210.93C1065.23,1213.89 1048.22,1224.87 1040.43,1230.99L1151.24,1230.99C1164.16,1225.69 1206.35,1209.37 1247.83,1204.05C1272.78,1200.86 1301.32,1204.75 1328.62,1208.49C1352.4,1211.74 1375.2,1214.91 1393.61,1212.63L1393.61,1184.42C1381.87,1188.83 1359.28,1194.82 1334.36,1188.41C1323.15,1185.54 1307.56,1180.52 1291.06,1178.54C1275.27,1176.66 1258.59,1177.53 1244.4,1186.35C1213.07,1205.83 1189.99,1213.32 1189.99,1213.32C1187.8,1214.03 1185.45,1212.83 1184.73,1210.65C1184.02,1208.46 1185.22,1206.11 1187.41,1205.39C1187.41,1205.39 1209.7,1198.11 1240,1179.27C1255.84,1169.42 1274.42,1168.16 1292.05,1170.27C1308.96,1172.29 1324.95,1177.39 1336.43,1180.34C1361.67,1186.83 1384.28,1179.39 1393.61,1175.48L1393.61,1159.63C1386.25,1160.75 1377.43,1160.31 1368.69,1159.1C1352.12,1156.8 1335.85,1151.85 1331.86,1151.56C1325.29,1151.09 1297.5,1147.76 1252.66,1161.28C1224.2,1169.85 1202.87,1164.22 1184.34,1157.98C1172.84,1154.11 1162.52,1149.94 1152.15,1149.44C1125.82,1148.16 1089.76,1156.68 1089.76,1156.68C1087.52,1157.21 1085.28,1155.82 1084.75,1153.58C1084.22,1151.34 1085.61,1149.1 1087.85,1148.57C1087.85,1148.57 1125.25,1139.79 1152.56,1141.12C1163.64,1141.66 1174.71,1145.95 1187,1150.08C1204.15,1155.86 1223.9,1161.24 1250.26,1153.3C1296.79,1139.27 1325.64,1142.76 1332.46,1143.25C1336.5,1143.54 1353.03,1148.51 1369.83,1150.84C1378.28,1152.01 1386.82,1152.56 1393.61,1151.22L1393.61,1134.86L1037.68,1134.86ZM1393.61,1221.01C1374.74,1223.09 1351.6,1220.04 1327.49,1216.74C1300.93,1213.11 1273.16,1209.21 1248.89,1212.32C1221.44,1215.84 1193.68,1224.29 1174.69,1230.99L1393.61,1230.99L1393.61,1221.01ZM1037.68,1160.42L1037.68,1171.79C1051.53,1174.2 1100.77,1182.34 1129.7,1181.35C1134.2,1181.03 1136.87,1180.87 1136.87,1180.87C1139.13,1180.73 1141.09,1182.42 1141.28,1184.68C1141.47,1186.93 1139.82,1188.93 1137.57,1189.17C1135.37,1189.4 1132.99,1189.56 1130.45,1189.65C1116.1,1190.64 1082.47,1193.24 1058.81,1197.06C1051.11,1198.3 1044.5,1199.65 1040.04,1201.15C1039.23,1201.42 1038.38,1201.79 1037.68,1202.12L1037.68,1222.62C1047.12,1215.69 1064.59,1205.57 1088.97,1202.65C1122.23,1198.66 1133.23,1205.76 1157.91,1201.88C1171.59,1199.72 1186.65,1192.51 1197.06,1186.7C1191.44,1185.93 1186.65,1184.14 1181.18,1181.75C1175.15,1179.1 1168.24,1175.66 1158.04,1172.13C1146.21,1168.05 1139.63,1171.15 1131.32,1173.5C1121.68,1176.23 1110.03,1178.39 1088.32,1171.04C1061.1,1161.81 1045.02,1160.41 1037.68,1160.42ZM1706.11,1145.28C1697.75,1152.15 1683.53,1161.18 1664.23,1163.93C1649.76,1165.99 1640.14,1165.2 1631.44,1164.39C1623.38,1163.64 1616.17,1162.84 1606.21,1164.7C1594.69,1166.85 1582,1174.13 1573.31,1179.92C1578.11,1180.71 1582.23,1182.53 1586.91,1184.97C1591.97,1187.6 1597.77,1191.03 1606.32,1194.54C1615.93,1198.48 1621.27,1195.42 1628.02,1193.15C1636.32,1190.36 1646.35,1188.12 1665.03,1195.64C1686.54,1204.29 1699.64,1206 1706.11,1206.16L1706.11,1194.59C1693.38,1191.98 1653.53,1184.28 1629.88,1185.24C1626.07,1185.56 1623.8,1185.72 1623.8,1185.72C1621.55,1185.89 1619.58,1184.23 1619.36,1181.98C1619.13,1179.73 1620.74,1177.72 1622.98,1177.43C1624.83,1177.2 1626.84,1177.04 1628.98,1176.96C1641.02,1175.96 1669.33,1173.37 1689.24,1169.56C1695.64,1168.33 1701.14,1167 1704.85,1165.53C1705.26,1165.36 1705.7,1165.15 1706.11,1164.94L1706.11,1145.28ZM1037.68,1180.24L1037.68,1193.16C1039.81,1192.46 1042.34,1191.78 1045.18,1191.14C1053.72,1189.23 1065.35,1187.54 1077.46,1186.11C1060.56,1184.02 1045.34,1181.54 1037.68,1180.24ZM1706.11,1173.93C1704.65,1174.44 1703.02,1174.94 1701.25,1175.41C1693.99,1177.35 1684.08,1179.05 1673.78,1180.49C1687.15,1182.45 1699.27,1184.74 1706.11,1186.1L1706.11,1173.93ZM1591.63,1135.6L1408.7,1135.6L1408.7,1145.43C1424.45,1143.69 1443.52,1146.65 1463.36,1149.87C1485.6,1153.48 1508.86,1157.38 1529.19,1154.29C1552.31,1150.77 1575.7,1142.29 1591.63,1135.6ZM1264.02,1024.05L1074.67,1024.05C1088.64,1030.42 1117.59,1041.14 1159.19,1044.09C1215.49,1048.09 1234.1,1041 1275.88,1044.9C1318.17,1048.84 1368.02,1068.98 1368.02,1068.98C1369.93,1069.75 1370.99,1071.81 1370.51,1073.81C1370.02,1075.82 1368.15,1077.17 1366.09,1076.99C1329.18,1073.74 1320.76,1082.11 1277.74,1090.92C1259.63,1094.63 1247.93,1093.27 1235.83,1091.2C1218.68,1088.27 1200.67,1083.87 1160.05,1092.03C1106.73,1102.74 1077.44,1103.23 1066.52,1102.85L1066.52,1120.18L1677.97,1120.18L1677.97,1104.6C1644.38,1098.62 1579.44,1111.33 1568.59,1111.8C1557.22,1112.28 1509.11,1115.71 1431.51,1101.85C1385.91,1093.71 1351.73,1099.17 1322.05,1105.09C1301.73,1109.14 1283.46,1113.39 1265.14,1113.92C1219.6,1115.23 1157.22,1106.54 1157.22,1106.54C1154.94,1106.22 1153.35,1104.11 1153.66,1101.83C1153.98,1099.56 1156.09,1097.96 1158.37,1098.28C1158.37,1098.28 1219.94,1106.88 1264.9,1105.59C1282.78,1105.08 1300.6,1100.87 1320.42,1096.92C1350.94,1090.83 1386.08,1085.27 1432.98,1093.65C1509.54,1107.32 1557.02,1103.95 1568.23,1103.47C1579.11,1103.01 1643.26,1090.77 1677.97,1096.16L1677.97,1080.84C1665.23,1077.37 1622.62,1067.45 1574.5,1074.78C1535.71,1080.68 1466.52,1095.05 1415.18,1076.14C1363.56,1057.12 1325.55,1049.77 1325.55,1049.77C1323.29,1049.34 1321.81,1047.15 1322.25,1044.89C1322.68,1042.63 1324.87,1041.15 1327.13,1041.59C1327.13,1041.59 1365.69,1049.02 1418.06,1068.32C1468.07,1086.74 1535.47,1072.29 1573.25,1066.54C1620.37,1059.36 1662.39,1068.19 1677.97,1072.22L1677.97,1042.87C1611.28,1036.48 1507.61,1057.15 1426.7,1051C1356.27,1045.66 1284.63,1029.08 1264.02,1024.05ZM1066.52,1029.39L1066.52,1051.78C1067.22,1052.12 1068.33,1052.39 1069.72,1052.76C1073.62,1053.8 1079.31,1054.77 1086.27,1055.7C1124.22,1060.75 1198.71,1064.18 1227.61,1065.38C1231.88,1065.46 1235.89,1065.62 1239.58,1065.85C1241.86,1066 1243.6,1067.94 1243.48,1070.22C1243.37,1072.49 1241.45,1074.26 1239.17,1074.17C1239.17,1074.17 1234.7,1074.01 1227.19,1073.7C1174.33,1072.62 1081.57,1082.14 1066.52,1083.73L1066.52,1094.52C1076.4,1094.88 1105.03,1094.58 1158.41,1083.86C1193.7,1076.77 1212.62,1078.8 1228.3,1081.43C1243.16,1083.93 1254.94,1087.09 1276.07,1082.76C1308.44,1076.13 1321.75,1069.87 1341.47,1068.31C1323.59,1062.46 1298.19,1055.35 1275.11,1053.19C1233.39,1049.3 1214.81,1056.4 1158.6,1052.4C1110.62,1049 1078.84,1035.55 1066.52,1029.39ZM1066.52,1060.52L1066.52,1075.35C1075.76,1074.38 1105.24,1071.39 1138.75,1068.92C1118.64,1067.51 1099.36,1065.85 1085.17,1063.96C1077.14,1062.89 1070.69,1061.73 1066.52,1060.52ZM1341.76,1024.05L1301.96,1024.05C1334.22,1030.77 1381.04,1039.18 1427.33,1042.69C1507.96,1048.82 1611.15,1028.4 1677.97,1034.51L1677.97,1024.69L1344.77,1024.69C1343.69,1024.69 1342.67,1024.46 1341.76,1024.05ZM1705.74,913.977L1594.94,913.977C1582.02,919.275 1539.83,935.6 1498.35,940.914C1473.4,944.11 1444.85,940.215 1417.55,936.482C1393.77,933.229 1370.97,930.062 1352.56,932.336L1352.56,960.546C1364.31,956.139 1386.89,950.149 1411.82,956.553C1423.02,959.433 1438.62,964.451 1455.12,966.424C1470.91,968.312 1487.59,967.441 1501.78,958.621C1533.11,939.142 1556.19,931.651 1556.19,931.651C1558.38,930.939 1560.73,932.136 1561.44,934.322C1562.15,936.509 1560.96,938.862 1558.77,939.575C1558.77,939.575 1536.47,946.863 1506.17,965.698C1490.33,975.546 1471.76,976.806 1454.13,974.699C1437.22,972.677 1421.23,967.576 1409.74,964.624C1384.5,958.138 1361.89,965.579 1352.56,969.487L1352.56,985.335C1359.93,984.215 1368.74,984.659 1377.49,985.872C1394.05,988.169 1410.33,993.121 1414.32,993.408C1420.88,993.881 1448.68,997.205 1493.51,983.693C1521.98,975.115 1543.31,980.748 1561.84,986.986C1573.33,990.858 1583.65,995.023 1594.02,995.527C1620.35,996.804 1656.41,988.285 1656.41,988.285C1658.65,987.758 1660.9,989.147 1661.42,991.386C1661.95,993.624 1660.56,995.87 1658.32,996.397C1658.32,996.397 1620.92,1005.18 1593.62,1003.85C1582.53,1003.31 1571.47,999.022 1559.18,994.884C1542.02,989.107 1522.28,983.728 1495.92,991.672C1449.39,1005.7 1420.54,1002.21 1413.72,1001.72C1409.67,1001.43 1393.15,996.457 1376.35,994.126C1367.89,992.954 1359.36,992.404 1352.56,993.748L1352.56,1009.46L1685.26,1009.46C1686.34,1009.46 1687.36,1009.69 1688.27,1010.11L1708.49,1010.11L1708.49,992.862C1700.05,992.867 1683.01,991.25 1655.18,981.822C1631.96,973.956 1621.66,978.204 1611.86,981.029C1604.22,983.23 1596.84,984.658 1585.42,980.71C1574.95,977.091 1567.84,973.571 1561.64,970.855C1553.18,967.144 1546.59,965.071 1534.32,966.892C1532.4,967.177 1530.53,966.098 1529.83,964.289C1529.12,962.481 1529.75,960.424 1531.36,959.329C1531.36,959.329 1561.45,938.875 1586.97,934.861C1611.76,930.96 1622.81,938.048 1656.22,934.042C1680.95,931.078 1697.95,920.103 1705.74,913.977ZM1040.07,913.232L1040.07,930.494C1047.68,930.664 1061.9,932.608 1084.25,941.601C1103.38,949.294 1111.86,945.137 1119.93,942.375C1126.6,940.094 1133.04,938.624 1143.01,942.715C1151.87,946.348 1157.88,949.881 1163.12,952.608C1170.02,956.203 1175.4,958.233 1185.41,956.468C1187.28,956.139 1189.14,957.115 1189.93,958.843C1190.71,960.572 1190.23,962.614 1188.76,963.809C1188.76,963.809 1163.17,984.412 1141.5,988.461C1130.62,990.492 1122.76,989.695 1113.96,988.874C1105.78,988.111 1096.73,987.351 1083.12,989.288C1062.28,992.254 1048.03,1003.35 1041.66,1009.37L1134.3,1009.37C1145.49,1003.93 1180.91,987.739 1215.74,982.442C1236.86,979.229 1261.04,983.123 1284.16,986.876C1303.61,990.034 1322.27,993.144 1337.47,991.167L1337.47,963.425C1327.04,967.782 1308.64,972.898 1288.45,966.739C1279.06,963.873 1265.99,958.87 1252.15,956.906C1239.13,955.057 1225.36,955.895 1213.65,964.535C1187.15,984.098 1167.61,991.616 1167.61,991.616C1165.47,992.445 1163.05,991.377 1162.23,989.232C1161.39,987.087 1162.46,984.673 1164.61,983.843C1164.61,983.843 1183.3,976.582 1208.7,957.83C1222.29,947.802 1238.21,946.51 1253.33,948.656C1267.64,950.687 1281.17,955.804 1290.89,958.768C1311.15,964.95 1329.36,958.244 1337.47,954.329L1337.47,938.212C1331.45,939.052 1324.46,938.598 1317.51,937.454C1303.6,935.164 1289.94,930.216 1286.59,929.93C1281.1,929.461 1257.86,926.171 1220.38,939.583C1196.07,948.283 1177.84,942.603 1162.02,936.276C1152.45,932.453 1143.89,928.31 1135.26,927.814C1113.25,926.545 1083.1,935.014 1083.1,935.014C1080.89,935.633 1078.59,934.338 1077.97,932.123C1077.35,929.908 1078.64,927.608 1080.86,926.989C1080.86,926.989 1112.58,918.16 1135.74,919.494C1145.19,920.038 1154.64,924.352 1165.11,928.538C1179.34,934.227 1195.71,939.559 1217.57,931.737C1257.04,917.614 1281.51,921.133 1287.3,921.627C1290.71,921.919 1304.67,926.895 1318.87,929.232C1325.43,930.313 1332.06,930.884 1337.47,929.836L1337.47,913.232L1040.07,913.232ZM1337.47,999.538C1321.73,1001.28 1302.66,998.322 1282.82,995.102C1260.57,991.49 1237.32,987.589 1216.99,990.681C1193.87,994.197 1170.48,1002.68 1154.55,1009.37L1337.47,1009.37L1337.47,999.538ZM1040.07,938.806L1040.07,950.378C1052.8,952.993 1092.65,960.688 1116.3,959.729C1120.11,959.41 1122.38,959.245 1122.38,959.245C1124.63,959.082 1126.6,960.742 1126.82,962.989C1127.04,965.235 1125.44,967.251 1123.2,967.534C1121.35,967.769 1119.33,967.926 1117.19,968.012C1105.15,969.007 1076.85,971.597 1056.94,975.409C1050.54,976.634 1045.04,977.968 1041.33,979.442C1040.92,979.606 1040.48,979.815 1040.07,980.028L1040.07,999.685C1048.43,992.813 1062.65,983.784 1081.94,981.038C1096.41,978.978 1106.04,979.766 1114.73,980.576C1122.8,981.329 1130,982.131 1139.97,980.269C1151.49,978.117 1164.17,970.842 1172.87,965.052C1168.07,964.261 1163.95,962.436 1159.27,959.999C1154.21,957.364 1148.41,953.935 1139.85,950.425C1130.25,946.486 1124.91,949.548 1118.16,951.819C1109.86,954.609 1099.83,956.848 1081.14,949.332C1059.64,940.682 1046.53,938.966 1040.07,938.806ZM1708.49,922.35C1699.06,929.274 1681.58,939.395 1657.21,942.316C1623.94,946.304 1612.95,939.209 1588.26,943.093C1574.59,945.245 1559.53,952.462 1549.11,958.269C1554.73,959.033 1559.53,960.828 1564.99,963.223C1571.02,965.868 1577.94,969.309 1588.14,972.834C1599.96,976.918 1606.54,973.818 1614.86,971.464C1624.5,968.734 1636.15,966.575 1657.85,973.929C1685.08,983.154 1701.15,984.557 1708.49,984.543L1708.49,973.177C1694.64,970.765 1645.4,962.63 1616.48,963.62C1611.98,963.937 1609.3,964.101 1609.3,964.101C1607.04,964.238 1605.09,962.546 1604.9,960.289C1604.71,958.033 1606.36,956.039 1608.61,955.799C1610.8,955.565 1613.18,955.408 1615.72,955.322C1630.07,954.323 1663.7,951.728 1687.37,947.912C1695.06,946.671 1701.68,945.314 1706.14,943.821C1706.95,943.549 1707.8,943.179 1708.49,942.846L1708.49,922.35ZM1040.07,958.865L1040.07,971.034C1041.53,970.525 1043.16,970.03 1044.93,969.558C1052.19,967.621 1062.1,965.915 1072.39,964.481C1059.02,962.52 1046.9,960.227 1040.07,958.865ZM1708.49,951.809C1706.36,952.508 1703.84,953.185 1701,953.824C1692.46,955.743 1680.83,957.433 1668.71,958.858C1685.62,960.952 1700.83,963.425 1708.49,964.73L1708.49,951.809ZM1571.48,913.977L1352.56,913.977L1352.56,923.959C1371.44,921.883 1394.58,924.929 1418.68,928.225C1445.24,931.857 1473.01,935.758 1497.29,932.648C1524.73,929.132 1552.5,920.678 1571.48,913.977ZM1259.67,801.525L1070.32,801.525C1084.29,807.897 1113.24,818.616 1154.84,821.572C1211.14,825.571 1229.75,818.481 1271.53,822.377C1313.82,826.32 1363.66,846.456 1363.66,846.456C1365.58,847.23 1366.64,849.287 1366.15,851.293C1365.67,853.3 1363.79,854.651 1361.74,854.47C1324.83,851.224 1316.41,859.591 1273.38,868.402C1255.28,872.11 1243.58,870.748 1231.48,868.681C1214.33,865.752 1196.31,861.354 1155.7,869.509C1102.37,880.217 1073.09,880.705 1062.17,880.331L1062.17,897.659L1673.62,897.659L1673.62,882.077C1640.03,876.099 1575.09,888.812 1564.24,889.275C1552.87,889.76 1504.76,893.192 1427.16,879.332C1381.56,871.187 1347.38,876.646 1317.7,882.569C1297.38,886.624 1279.11,890.875 1260.79,891.402C1215.25,892.711 1152.86,884.016 1152.86,884.016C1150.59,883.698 1149,881.591 1149.31,879.313C1149.63,877.036 1151.74,875.445 1154.02,875.763C1154.02,875.763 1215.59,884.365 1260.55,883.072C1278.43,882.558 1296.24,878.353 1316.07,874.397C1346.59,868.306 1381.73,862.753 1428.62,871.129C1505.19,884.804 1552.66,881.428 1563.88,880.949C1574.76,880.486 1638.91,868.254 1673.62,873.64L1673.62,858.319C1660.88,854.85 1618.27,844.929 1570.15,852.256C1531.36,858.164 1462.16,872.531 1410.83,853.618C1359.21,834.598 1321.2,827.252 1321.2,827.252C1318.94,826.816 1317.46,824.629 1317.9,822.371C1318.33,820.113 1320.52,818.634 1322.78,819.07C1322.78,819.07 1361.34,826.503 1413.71,845.798C1463.71,864.221 1531.11,849.772 1568.9,844.018C1616.02,836.842 1658.04,845.673 1673.62,849.701L1673.62,820.352C1606.93,813.959 1503.26,834.627 1422.34,828.484C1351.92,823.137 1280.27,806.558 1259.67,801.525ZM1062.17,806.87L1062.17,829.26C1062.87,829.6 1063.97,829.874 1065.37,830.245C1069.27,831.279 1074.96,832.25 1081.92,833.177C1119.87,838.23 1194.36,841.665 1223.26,842.858C1227.53,842.943 1231.54,843.098 1235.23,843.332C1237.51,843.476 1239.24,845.42 1239.13,847.697C1239.02,849.973 1237.1,851.736 1234.82,851.654C1234.82,851.654 1230.35,851.493 1222.84,851.18C1169.98,850.102 1077.22,859.619 1062.17,861.209L1062.17,871.996C1072.05,872.365 1100.67,872.058 1154.06,861.339C1189.35,854.254 1208.27,856.282 1223.95,858.912C1238.81,861.406 1250.59,864.565 1271.71,860.239C1304.09,853.609 1317.4,847.35 1337.12,845.791C1319.24,839.945 1293.84,832.827 1270.76,830.674C1229.04,826.784 1210.46,833.877 1154.25,829.884C1106.27,826.475 1074.49,813.027 1062.17,806.87ZM1062.17,838.002L1062.17,852.831C1071.4,851.865 1100.89,848.872 1134.4,846.4C1114.29,844.993 1095.01,843.327 1080.82,841.437C1072.79,840.368 1066.34,839.208 1062.17,838.002ZM1297.61,801.525C1329.87,808.25 1376.68,816.66 1422.98,820.175C1503.61,826.296 1606.8,805.876 1673.62,811.985L1673.62,801.525L1297.61,801.525Z" style="fill:white;"/>
        </g>
    </g>
</svg>
