<?xml version="1.0" encoding="UTF-8" standalone="no"?>
<!DOCTYPE svg PUBLIC "-//W3C//DTD SVG 1.1//EN" "http://www.w3.org/Graphics/SVG/1.1/DTD/svg11.dtd">
<svg width="100%" height="100%" viewBox="0 0 700 700" version="1.1" xmlns="http://www.w3.org/2000/svg" xmlns:xlink="http://www.w3.org/1999/xlink" xml:space="preserve" xmlns:serif="http://www.serif.com/" style="fill-rule:evenodd;clip-rule:evenodd;stroke-linejoin:round;stroke-miterlimit:2;">
    <rect id="Artboard1" x="0" y="0" width="700" height="700" style="fill:none;"/>
    <g id="Artboard11" serif:id="Artboard1">
        <g>
            <g transform="matrix(1,0,0,1,-441.042,-1349.19)">
                <path d="M861.69,1990C859.48,1990.66 857.085,1990.25 855.231,1988.87C853.378,1987.49 852.286,1985.32 852.288,1983.01L852.306,1959.43L799.007,1959.43L799.007,1959.36L488.589,1959.36C484.562,1959.36 481.297,1956.1 481.297,1952.07L481.297,1443.02C481.297,1438.99 484.562,1435.73 488.589,1435.73L852.718,1435.73L852.734,1415.36C852.735,1413.05 853.831,1410.88 855.686,1409.51C857.542,1408.13 859.939,1407.72 862.148,1408.39L951.999,1435.73L1093.5,1435.73C1097.52,1435.73 1100.79,1438.99 1100.79,1443.02L1100.79,1952.07C1100.79,1956.1 1097.52,1959.36 1093.5,1959.36L962.974,1959.36L861.69,1990ZM1052.88,1916.93L1052.33,1481.5L867.309,1425.21L866.879,1973.19L1052.88,1916.93ZM852.318,1944.87L852.706,1450.31L495.881,1450.31L495.881,1944.78L852.318,1944.78L852.318,1944.87ZM1020.57,1944.78L1086.2,1944.78L1086.2,1450.31L999.933,1450.31L1061.73,1469.11C1064.8,1470.05 1066.9,1472.88 1066.9,1476.08L1067.47,1922.34C1067.47,1925.55 1065.37,1928.39 1062.29,1929.32L1011.26,1944.76L1020.57,1944.76L1020.57,1944.78Z" style="fill:white;"/>
            </g>
            <path d="M337.035,134.603C337.035,130.576 333.77,127.312 329.743,127.312L86.508,127.312C82.481,127.312 79.216,130.576 79.216,134.603L79.216,563.203C79.216,567.23 82.481,570.494 86.508,570.494L329.743,570.494C333.77,570.494 337.035,567.23 337.035,563.203L337.035,134.603ZM425.307,132.748C425.307,128.721 422.043,125.456 418.016,125.456L374.064,125.456C370.037,125.456 366.772,128.721 366.772,132.748L366.772,561.347C366.772,565.374 370.037,568.639 374.064,568.639L418.016,568.639C422.043,568.639 425.307,565.374 425.307,561.347L425.307,132.748ZM203.921,555.911L203.921,427.125L93.799,427.125L93.799,555.911L203.921,555.911ZM322.451,427.125L212.254,427.125L212.254,555.911L322.451,555.911L322.451,427.125ZM381.355,140.04L381.355,554.056L410.724,554.056L410.724,140.04L381.355,140.04ZM93.799,279.191L93.799,418.792L203.921,418.792L203.921,279.191L93.799,279.191ZM212.254,279.191L212.254,418.792L322.451,418.792L322.451,279.191L212.254,279.191ZM93.799,141.895L93.799,270.857L203.921,270.857L203.921,141.895L93.799,141.895ZM212.254,141.895L212.254,270.857L322.451,270.857L322.451,141.895L212.254,141.895Z" style="fill:white;"/>
            <g transform="matrix(1,0,0,1,-441.042,-1349.19)">
                <path d="M888.065,1930.51C888.065,1932.81 889.156,1934.98 891.006,1936.36C892.856,1937.73 895.248,1938.15 897.456,1937.49L1029.03,1897.93C1032.11,1897.01 1034.21,1894.18 1034.22,1890.96L1034.96,1509.85C1034.97,1506.57 1032.8,1503.7 1029.64,1502.81L897.302,1465.58C895.105,1464.96 892.744,1465.41 890.925,1466.79C889.105,1468.16 888.036,1470.31 888.036,1472.6L888.065,1930.51ZM902.64,1798.43L902.647,1920.7L957.672,1904.16L957.672,1791.83L902.64,1798.43ZM966.005,1790.83L966.005,1901.65L1019.65,1885.52L1019.85,1784.37L966.005,1790.83ZM902.628,1612.9L902.639,1790.04L957.672,1783.44L957.672,1619.5L902.628,1612.9ZM1020.15,1627L966.005,1620.5L966.005,1782.44L1019.86,1775.98L1020.15,1627ZM966.005,1612.11L1020.17,1618.61L1020.37,1515.35L966.005,1500.06L966.005,1612.11ZM902.628,1604.51L957.672,1611.11L957.672,1497.71L902.62,1482.22L902.628,1604.51Z" style="fill:white;"/>
            </g>
        </g>
    </g>
</svg>
